<?xml version="1.0" encoding="UTF-8"?>
<svg version="1.1" xmlns="http://www.w3.org/2000/svg" width="64" height="64">
<path d="M0 0 C3.90593095 4.91391313 2.99114113 9.69120417 2.32421875 15.5859375 C2.21722656 16.38257812 2.11023437 17.17921875 2 18 C2.76183594 17.3503125 2.76183594 17.3503125 3.5390625 16.6875 C6.76965943 14.07398339 9.13573329 12.18282565 13.25 11.3125 C16 12 16 12 18.25 14.0625 C21.48269822 19.48881487 22.57098938 24.71911681 22 31 C20.72874932 34.4792124 19.62433795 36.46485319 16.8125 38.875 C12.97013656 40.41194537 10.14068721 40.19717558 6 40 C4.68 40 3.36 40 2 40 C2.825 40.845625 3.65 41.69125 4.5 42.5625 C6.66786914 45.17506025 7.01197577 46.07717717 7.5625 49.625 C7 53 7 53 5.5 55.3125 C0.2909705 58.82859491 -5.80522697 59.57359009 -12 59 C-15.68166247 57.72557838 -17.51321807 56.61240307 -19.9375 53.5625 C-21.51178936 48.28400038 -20.72534357 43.40075089 -20 38 C-20.50789063 38.433125 -21.01578125 38.86625 -21.5390625 39.3125 C-24.76965943 41.92601661 -27.13573329 43.81717435 -31.25 44.6875 C-34 44 -34 44 -36.25 41.9375 C-39.46175702 36.54633643 -40.66900255 31.24402382 -40 25 C-38.67367509 21.46552336 -37.17026717 18.63592643 -33.75 16.77734375 C-30.49302565 15.85669333 -28.04299645 16.00626413 -24.6875 16.375 C-23.08455078 16.54128906 -23.08455078 16.54128906 -21.44921875 16.7109375 C-20.64097656 16.80632813 -19.83273438 16.90171875 -19 17 C-19.433125 16.57589844 -19.86625 16.15179687 -20.3125 15.71484375 C-23.32930743 12.53741925 -24.87601259 10.73152573 -25.625 6.3125 C-25 3 -25 3 -23.5 0.6875 C-16.53912098 -4.01109334 -7.04280441 -4.8019121 0 0 Z M-14 25 C-14.33333333 28 -14.33333333 28 -14 31 C-12.11499729 33.31563087 -12.11499729 33.31563087 -9 33.25 C-5.88500271 33.31563087 -5.88500271 33.31563087 -4 31 C-3.66666667 28 -3.66666667 28 -4 25 C-5.88500271 22.68436913 -5.88500271 22.68436913 -9 22.75 C-12.11499729 22.68436913 -12.11499729 22.68436913 -14 25 Z " fill="#FFFFFF" transform="translate(41,4)"/>
</svg>
