<svg width="64" height="64" viewBox="0 0 64 64" fill="none" xmlns="http://www.w3.org/2000/svg">
<path d="M61.0001 13.2401C61.0008 13.1084 60.9756 12.978 60.9258 12.8561C60.8761 12.7343 60.8028 12.6235 60.7101 12.5301L51.4701 3.28005C51.2827 3.0938 51.0293 2.98926 50.7651 2.98926C50.5009 2.98926 50.2474 3.0938 50.0601 3.28005L44.6801 8.66005C43.4801 7.24005 41.3201 6.84005 40.1701 8.04005L33.3801 14.8201C33.1227 15.1218 32.9276 15.4717 32.8063 15.8493C32.685 16.227 32.6397 16.6249 32.6732 17.0202C32.7067 17.4154 32.8182 17.8001 33.0014 18.152C33.1845 18.5038 33.4356 18.8159 33.7401 19.07L35.1701 20.4901L30.4101 25.2401C29.9008 25.7533 29.615 26.447 29.615 27.1701C29.615 27.8931 29.9008 28.5868 30.4101 29.1001L34.9001 33.59C35.4158 34.0946 36.1086 34.3771 36.8301 34.3771C37.5515 34.3771 38.2443 34.0946 38.7601 33.59L43.5101 28.8301L44.9301 30.2601C45.4523 30.8621 46.1894 31.2358 46.9837 31.3012C47.778 31.3666 48.5664 31.1186 49.1801 30.6101L56.0001 23.8301C57.2001 22.6801 56.8101 20.52 55.3801 19.32L60.7601 13.9401C60.9266 13.746 61.0125 13.4955 61.0001 13.2401ZM39.5901 24.9201L36.6701 27.84L36.1601 27.3301L39.0801 24.41L39.5901 24.9201ZM37.3401 32.17C37.2059 32.2996 37.0266 32.372 36.8401 32.372C36.6535 32.372 36.4743 32.2996 36.3401 32.17L31.8501 27.6901C31.7205 27.5558 31.6481 27.3766 31.6481 27.1901C31.6481 27.0035 31.7205 26.8243 31.8501 26.6901L36.6001 21.93L37.6701 23L34.0001 26.6301C33.8257 26.8155 33.7286 27.0605 33.7286 27.3151C33.7286 27.5696 33.8257 27.8146 34.0001 28L36.0001 30C36.1874 30.1863 36.4409 30.2908 36.7051 30.2908C36.9693 30.2908 37.2227 30.1863 37.4101 30L41.0001 26.3301L42.0901 27.4201L37.3401 32.17ZM49.6701 22.1701L41.8401 14.3401L50.7601 5.40005L58.6001 13.2401L49.6701 22.1701Z" fill="#ffffff" id="id_101"></path>
<path d="M24 28.3101C23.4562 27.7666 22.7189 27.4613 21.95 27.4613C21.1812 27.4613 20.4438 27.7666 19.9 28.3101L10.73 37.4801C10.4206 37.7982 10.1856 38.1809 10.042 38.6008C9.89837 39.0207 9.84966 39.4672 9.8994 39.9081C9.94914 40.3491 10.0961 40.7735 10.3296 41.1508C10.5632 41.5281 10.8775 41.8489 11.25 42.0901L3.25002 50.0901C3.06377 50.2774 2.95923 50.5309 2.95923 50.7951C2.95923 51.0593 3.06377 51.3127 3.25002 51.5001L12.5 60.7501C12.6874 60.9363 12.9408 61.0409 13.205 61.0409C13.4692 61.0409 13.7227 60.9363 13.91 60.7501L21.91 52.7501C22.1512 53.1226 22.472 53.4369 22.8493 53.6705C23.2266 53.904 23.651 54.051 24.092 54.1007C24.533 54.1504 24.9794 54.1017 25.3993 53.9581C25.8192 53.8145 26.2019 53.5795 26.52 53.2701L35.69 44.1001C35.9602 43.8316 36.1745 43.5121 36.3204 43.1602C36.4663 42.8084 36.541 42.431 36.54 42.0501C36.532 41.2973 36.2264 40.5783 35.69 40.0501L24 28.3101ZM13.24 58.6001L5.40002 50.7601L12.66 43.5101L20.49 51.3401L13.24 58.6001ZM30.06 43.6001L26 47.6301C25.4562 48.1736 24.7189 48.4789 23.95 48.4789C23.1812 48.4789 22.4438 48.1736 21.9 47.6301L16.39 42.1201C15.8465 41.5763 15.5412 40.8389 15.5412 40.0701C15.5412 39.3013 15.8465 38.5639 16.39 38.0201L20.46 33.9401C21.0068 33.3984 21.7454 33.0945 22.515 33.0945C23.2847 33.0945 24.0232 33.3984 24.57 33.9401L30.08 39.4501C30.619 39.9995 30.9193 40.7395 30.9156 41.5092C30.9118 42.2789 30.6044 43.0159 30.06 43.5601V43.6001Z" fill="#ffffff" id="id_102"></path>
</svg>