<svg width="48" height="48" viewBox="0 0 48 48" fill="none" xmlns="http://www.w3.org/2000/svg">
<path d="M27.892 6.48901C27.2765 6.14576 26.5793 5.976 25.8749 5.99784C25.1704 6.01968 24.4851 6.23229 23.892 6.61301L10.738 14H6.5C5.30693 14.0013 4.16311 14.4759 3.31948 15.3195C2.47585 16.1631 2.00132 17.3069 2 18.5V29.5C2.00132 30.6931 2.47585 31.8369 3.31948 32.6805C4.16311 33.5242 5.30693 33.9987 6.5 34H10.738L23.9 41.387C24.4933 41.7671 25.1786 41.9793 25.8829 42.0012C26.5872 42.023 27.2843 41.8536 27.9 41.511C28.5397 41.1558 29.0721 40.6351 29.4415 40.0035C29.8109 39.3719 30.0038 38.6527 30 37.921V10.079C30.0031 9.34653 29.809 8.62672 29.4381 7.99508C29.0672 7.36343 28.5331 6.84322 27.892 6.48901V6.48901ZM4 29.5V18.5C4 17.837 4.26339 17.2011 4.73223 16.7322C5.20107 16.2634 5.83696 16 6.5 16H10V32H6.5C5.83696 32 5.20107 31.7366 4.73223 31.2678C4.26339 30.7989 4 30.163 4 29.5ZM28 37.921C28.0059 38.2951 27.9095 38.6637 27.7213 38.9871C27.5331 39.3105 27.2602 39.5763 26.932 39.756C26.6271 39.9282 26.2806 40.0128 25.9306 40.0004C25.5807 39.9881 25.241 39.8793 24.949 39.686C24.933 39.675 24.916 39.665 24.9 39.656L12 32.415V15.585L24.9 8.34401C24.916 8.33501 24.933 8.32501 24.949 8.31401C25.241 8.12075 25.5807 8.01194 25.9306 7.99958C26.2806 7.98723 26.6271 8.07182 26.932 8.24401C27.2602 8.42367 27.5331 8.68952 27.7213 9.0129C27.9095 9.33627 28.0059 9.7049 28 10.079V37.921Z" fill="#ffffff" id="id_101"></path>
<path d="M42.0551 11.428C41.9034 11.2104 41.6714 11.0619 41.4103 11.0153C41.1492 10.9687 40.8802 11.0278 40.6626 11.1795C40.445 11.3312 40.2965 11.5631 40.2499 11.8242C40.2033 12.0854 40.2624 12.3544 40.4141 12.572C42.749 15.9255 44.0006 19.9137 44.0006 24C44.0006 28.0862 42.749 32.0745 40.4141 35.428C40.2625 35.6456 40.2036 35.9145 40.2503 36.1755C40.297 36.4366 40.4455 36.6684 40.6631 36.82C40.8806 36.9716 41.1494 37.0307 41.4104 36.9842C41.6715 36.9377 41.9033 36.7894 42.0551 36.572C44.624 32.8829 46.0011 28.4954 46.0011 24C46.0011 19.5046 44.624 15.117 42.0551 11.428V11.428Z" fill="#ffffff" id="id_102"></path>
<path d="M34.275 16.323C34.1673 16.3982 34.0754 16.4939 34.0047 16.6046C33.934 16.7154 33.8858 16.8389 33.8628 16.9683C33.8399 17.0977 33.8427 17.2303 33.871 17.3586C33.8994 17.4869 33.9527 17.6083 34.028 17.716C35.3116 19.5601 35.9996 21.7531 35.9996 24C35.9996 26.2469 35.3116 28.4398 34.028 30.284C33.9513 30.3915 33.8966 30.5132 33.8672 30.642C33.8377 30.7708 33.8341 30.9042 33.8565 31.0344C33.8789 31.1646 33.9269 31.2891 33.9977 31.4007C34.0685 31.5122 34.1607 31.6086 34.269 31.6843C34.3773 31.76 34.4995 31.8135 34.6286 31.8417C34.7577 31.8699 34.891 31.8723 35.021 31.8486C35.151 31.825 35.275 31.7758 35.3859 31.704C35.4968 31.6321 35.5923 31.539 35.667 31.43C37.1855 29.2499 37.9995 26.6568 37.9995 24C37.9995 21.3432 37.1855 18.7501 35.667 16.57C35.5151 16.3527 35.2832 16.2046 35.0221 16.1583C34.7611 16.112 34.4924 16.1712 34.275 16.323Z" fill="#ffffff" id="id_103"></path>
</svg>