<?xml version="1.0" encoding="UTF-8"?>
<svg version="1.1" xmlns="http://www.w3.org/2000/svg" width="64" height="64">
<path d="M0 0 C2.1583195 6.07027358 2.20852314 11.59370576 2 18 C2.99 18.33 3.98 18.66 5 19 C5 20.32 5 21.64 5 23 C3.68 23 2.36 23 1 23 C1.0407666 23.59949463 1.0815332 24.19898926 1.12353516 24.81665039 C1.30325121 27.56460963 1.46425344 30.31336849 1.625 33.0625 C1.68945312 34.00544922 1.75390625 34.94839844 1.8203125 35.91992188 C2.12603635 41.40384339 2.14249861 45.89096484 0 51 C-6.15719142 53.83230805 -12.33513674 53.38683499 -18.875 52.4375 C-22 51 -22 51 -23.21875 48.09375 C-24.44904573 43.1052151 -23.97221348 38.14223321 -23.625 33.0625 C-23.56828125 32.09248047 -23.5115625 31.12246094 -23.453125 30.12304688 C-23.31271847 27.74783646 -23.16142622 25.37385876 -23 23 C-24.32 23 -25.64 23 -27 23 C-26.67 21.35 -26.34 19.7 -26 18 C-25.34 18 -24.68 18 -24 18 C-24.02320313 17.28714844 -24.04640625 16.57429688 -24.0703125 15.83984375 C-24.17815674 10.11639606 -23.92057311 5.40161186 -22 0 C-14.57161355 -1.33710956 -7.48595793 -0.68340908 0 0 Z M-13 2 C-13.33 2.33 -13.66 2.66 -14 3 C-16.33297433 3.04092937 -18.66705225 3.04241723 -21 3 C-21.19644384 4.89492746 -21.38177288 6.79100903 -21.5625 8.6875 C-21.66691406 9.74324219 -21.77132813 10.79898437 -21.87890625 11.88671875 C-21.99277552 14.81426086 -21.70848415 17.17131144 -21 20 C-20.34 20 -19.68 20 -19 20 C-19.33 18.35 -19.66 16.7 -20 15 C-14.06 15 -8.12 15 -2 15 C-2.33 16.65 -2.66 18.3 -3 20 C-2.34 20 -1.68 20 -1 20 C0.40333568 14.23073111 -0.32703384 8.81856895 -1 3 C-2.5778125 3.0309375 -2.5778125 3.0309375 -4.1875 3.0625 C-7.33323473 3.01093058 -9.94885876 2.62817614 -13 2 Z M-17 17 C-16.67 18.32 -16.34 19.64 -16 21 C-12.7 21 -9.4 21 -6 21 C-5.67 19.68 -5.34 18.36 -5 17 C-7.24512262 15.87743869 -8.51456649 15.86586238 -11 15.875 C-11.70125 15.87242188 -12.4025 15.86984375 -13.125 15.8671875 C-15.09153775 15.88622764 -15.09153775 15.88622764 -17 17 Z M-17 24 C-17.06058594 24.75925781 -17.12117188 25.51851562 -17.18359375 26.30078125 C-17.30927734 27.79158203 -17.30927734 27.79158203 -17.4375 29.3125 C-17.51871094 30.29863281 -17.59992187 31.28476562 -17.68359375 32.30078125 C-18 35 -18 35 -19 38 C-19.99 38.495 -19.99 38.495 -21 39 C-21 41.97 -21 44.94 -21 48 C-20.34 48.33 -19.68 48.66 -19 49 C-18.67 45.7 -18.34 42.4 -18 39 C-13.38 39 -8.76 39 -4 39 C-3.67 42.3 -3.34 45.6 -3 49 C-2.34 48.67 -1.68 48.34 -1 48 C-1 45.03 -1 42.06 -1 39 C-1.66 38.67 -2.32 38.34 -3 38 C-4.00259507 34.99221479 -4.30314642 32.46179353 -4.5625 29.3125 C-4.68818359 27.82169922 -4.68818359 27.82169922 -4.81640625 26.30078125 C-4.87699219 25.54152344 -4.93757813 24.78226563 -5 24 C-6.43640171 23.80426392 -7.87419504 23.61872184 -9.3125 23.4375 C-10.11300781 23.33308594 -10.91351563 23.22867187 -11.73828125 23.12109375 C-14.16817116 22.85244822 -14.16817116 22.85244822 -17 24 Z M-16 41 C-16.33 42.98 -16.66 44.96 -17 47 C-12.6835078 47.76173392 -9.25566547 48.16063604 -5 47 C-5.33 45.02 -5.66 43.04 -6 41 C-9.3 41 -12.6 41 -16 41 Z " fill="#FFFFFF" transform="translate(43,6)"/>
</svg>
